# AST/ASF file generated using VICON BodyLanguage
# -----------------------------------------------
:version 1.10
:name VICON
:units
  mass 1.0
  length 0.45
  angle deg
:documentation
   .ast/.asf automatically generated from VICON data using
   VICON BodyBuilder and BodyLanguage model FoxedUp or BRILLIANT.MOD
:root
   order TX TY TZ RX RY RZ
   axis XYZ
   position 0 0 0  
   orientation 0 0 0 
:bonedata
  begin
     id 1 
     name lhipjoint
     direction 0.78388 -0.462562 0.414208 
     length 3.01181 
     axis 0 0 0  XYZ
  end
  begin
     id 2 
     name lfemur
     direction 0.34202 -0.939693 0  
     length 6.04673  
     axis 0 0 20  XYZ
    dof rx ry rz
    limits (-160.0 20.0)
           (-70.0 70.0)
           (-60.0 70.0)
  end
  begin
     id 3 
     name ltibia
     direction 0.34202 -0.939693 0   
     length 7.211   
     axis 0 0 20   XYZ
    dof rx
    limits (-10.0 170.0)
  end
  begin
     id 4 
     name lfoot
     direction 0.121887 -0.334882 0.934344   
     length 2.13567   
     axis -90 7.62852e-016 20   XYZ
    dof rx rz
    limits (-45.0 90.0)
           (-70.0 20.0)
  end
  begin
     id 5 
     name ltoes
     direction 1.53555e-011 -4.2179e-011 1   
     length 1.05957   
     axis -90 7.62852e-016 20   XYZ
    dof rx
    limits (-90.0 20.0)
  end
  begin
     id 6 
     name rhipjoint
     direction -0.769387 -0.475875 0.426129   
     length 2.92756  
     axis 0 0 0  XYZ 
  end
  begin
     id 7 
     name rfemur
     direction -0.34202 -0.939693 0   
     length 6.35468   
     axis 0 0 -20   XYZ
    dof rx ry rz
    limits (-160.0 20.0)
           (-70.0 70.0)
           (-70.0 60.0)
  end
  begin
     id 8 
     name rtibia
     direction -0.34202 -0.939693 0   
     length 7.37886   
     axis 0 0 -20   XYZ
    dof rx
    limits (-10.0 170.0)
 end
 begin
     id 9 
     name rfoot
     direction -0.101763 -0.279592 0.954711   
     length 2.21478  
     axis -90 -7.62852e-016 -20   XYZ
    dof rx rz
    limits (-45.0 90.0)
           (-20.0 70.0)
  end
  begin
     id 10 
     name rtoes
     direction -1.53494e-011 -4.21851e-011 1   
     length 1.10506   
     axis -90 -7.62852e-016 -20   XYZ
    dof rx
    limits (-90.0 20.0)
  end
  begin
     id 11 
     name lowerback
     direction 0.00747405 0.999267 0.0375481   
     length 2.13259   
     axis 0 0 0   XYZ
    dof rx ry rz
    limits (-20.0 45.0)
           (-30.0 30.0)
           (-30.0 30.0)
  end
  begin
     id 12 
     name upperback
     direction 0.00661626 0.996177 0.0871029   
     length 2.10528   
     axis 0 0 0   XYZ
    dof rx ry rz
    limits (-20.0 45.0)
           (-30.0 30.0)
           (-30.0 30.0)
  end
  begin
     id 13 
     name thorax
     direction 0.00320659 0.997679 0.0680167   
     length 2.11338   
     axis 0 0 0   XYZ
    dof rx ry rz
    limits (-20.0 45.0)
           (-30.0 30.0)
           (-30.0 30.0)
  end
  begin
     id 14 
     name lowerneck
     direction 0.0374841 0.973033 0.227602   
     length 1.42765   
     axis 0 0 0   XYZ
    dof rx ry rz
    limits (-20.0 45.0)
           (-30.0 30.0)
           (-30.0 30.0)
  end
  begin
     id 15 
     name upperneck
     direction 0.00481585 0.989155 -0.146795   
     length 1.47593   
     axis 0 0 0   XYZ
    dof rx ry rz
    limits (-20.0 45.0)
           (-30.0 30.0)
           (-30.0 30.0)
  end
  begin
     id 16
     name head
     direction -0.00292522 0.997206 -0.0746423  
     length 1.48116  
     axis 0 0 0   XYZ
    dof rx ry rz
    limits (-20.0 45.0)
           (-30.0 30.0)
           (-30.0 30.0)
  end
  begin
     id 17 
     name lclavicle
     direction 0.951444 0.305606 0.0368784  
     length 3.01855  
     axis 0 0 0   XYZ
    dof ry rz
    limits (-20.0 10.0)
           (0.0 20.0)
  end
  begin
     id 18 
     name lhumerus
     direction 1 -4.48977e-011 2.61664e-027   
     length 5.52731   
     axis 180 -30 -90   XYZ
    dof rx ry rz
    limits (-60.0 90.0)
           (-90.0 90.0)
           (-90.0 90.0)
  end
  begin
     id 19
     name lradius
     direction 1 -4.48944e-011 8.22157e-027   
     length 3.11059   
     axis 180 -30 -90   XYZ
    dof rx
    limits (-10.0 170.0)
  end
  begin
     id 20
     name lwrist
     direction 1 -4.48976e-011 1.5779e-026   
     length 1.5553   
     axis -1.15221e-014 90 90   XYZ
    dof ry
    limits (-180.0 0.0)
 end
  begin
     id 21 
     name lhand
     direction 1 -4.49025e-011 3.1558e-026   
     length 0.419626   
     axis -2.01367e-014 90 90   XYZ
    dof rx rz
    limits (-90.0 90.0)
           (-45.0 45.0)
  end
  begin
     id 22 
     name lfingers
     direction 1 -4.4904e-011 6.31161e-026   
     length 0.338313   
     axis -4.02734e-014 90 90   XYZ
    dof rx
    limits (0.0 90.0)
  end
  begin
     id 23
     name lthumb
     direction 0.707107 -6.35004e-011 0.707107   
     length 0.485752   
     axis -90 45 2.85299e-015   XYZ
    dof rx rz
    limits (-45.0 45.0)
           (-45.0 45.0)
  end
  begin
     id 24 
     name rclavicle
     direction -0.968876 0.223791 0.105816   
     length 3.04177  
     axis 0 0 0   XYZ 
    dof ry rz
    limits (-10.0 20.0)
           (-20.0 0.0)
  end
  begin
     id 25 
     name rhumerus
     direction -1 -4.48962e-011 -1.01384e-027  
     length 5.25396   
     axis 180 30 90   XYZ
    dof rx ry rz
    limits (-90.0 60.0)
           (-90.0 90.0)
           (-90.0 90.0)
  end
  begin
     id 26 
     name rradius
     direction -1 -4.48955e-011 8.88542e-027   
     length 3.10567   
     axis 180 30 90   XYZ
    dof rx
    limits (-10.0 170.0)
  end
  begin
     id 27 
     name rwrist
     direction -1 -4.48994e-011 1.5779e-026   
     length 1.55283   
     axis -1.15221e-014 -90 -90   XYZ
    dof ry
    limits (-180.0 0.0)
  end
  begin
     id 28
     name rhand
     direction -1 -4.48891e-011 3.1558e-026   
     length 0.498676   
     axis -2.01367e-014 -90 -90   XYZ
    dof rx rz
    limits (-90.0 90.0)
           (-45.0 45.0)
  end
  begin
     id 29
     name rfingers
     direction -1 -4.48972e-011 6.31161e-026   
     length 0.402045   
     axis -4.02734e-014 -90 -90   XYZ
    dof rx
    limits (0.0 90.0)
  end
  begin
     id 30
     name rthumb
     direction -0.707107 -6.34849e-011 0.707107   
     length 0.577259   
     axis -90 -45 -2.85299e-015   XYZ
    dof rx rz
    limits (-45.0 45.0)
           (-45.0 45.0)
  end
:hierarchy
  begin
    root lhipjoint rhipjoint lowerback
    lhipjoint lfemur
    lfemur ltibia
    ltibia lfoot
    lfoot ltoes
    rhipjoint rfemur
    rfemur rtibia
    rtibia rfoot
    rfoot rtoes
    lowerback upperback
    upperback thorax
    thorax lowerneck lclavicle rclavicle
    lowerneck upperneck
    upperneck head
    lclavicle lhumerus
    lhumerus lradius
    lradius lwrist
    lwrist lhand lthumb
    lhand lfingers
    rclavicle rhumerus
    rhumerus rradius
    rradius rwrist
    rwrist rhand rthumb
    rhand rfingers
  end

#!OML:ASF H:\Pregnant\Project 1\Capture day 1\Session 1\femalepreg.ASF
:FULLY-SPECIFIED
:DEGREES
219
root -1.1676 16.0258 -2.24535 15.4105 -4.48702 -1.8304
lowerback -6.64762 5.44106 12.1161
upperback -5.61799 6.67286 -0.425067
thorax -0.819373 3.03252 -6.72683
lowerneck -19.7462 1.88022 2.78278
upperneck 21.3013 3.15966 -5.46324
head 10.2038 1.03056 -1.94157
rclavicle -3.97103e-014 7.95139e-015
rhumerus -18.7691 7.78884 -82.9835
rradius 36.7152
rwrist -13.4144
rhand -19.7934 -19.8297
rfingers 7.12502
rthumb 6.53922 -49.7087
lclavicle -3.97103e-014 7.95139e-015
lhumerus -51.8838 4.99412 77.6154
lradius 25.5351
lwrist 41.5838
lhand -16.0197 -1.18153
lfingers 7.12502
lthumb 10.1812 28.5521
rfemur -28.417 17.7671 21.113
rtibia 32.9139
rfoot -15.5006 -11.395
rtoes -12.4938
lfemur -45.0321 -6.39896 -13.9052
ltibia 32.324
lfoot -2.67132 8.82191
ltoes -22.4535
220
root -1.17003 16.0308 -2.32732 15.2431 -4.35196 -1.66572
lowerback -6.55476 5.38947 12.174
upperback -5.53528 6.6092 -0.290946
thorax -0.80554 3.00465 -6.62814
lowerneck -19.5993 1.89909 2.81322
upperneck 21.2518 3.22949 -5.66917
head 10.1667 1.0436 -2.00943
rclavicle -9.59571e-014 -4.85035e-014
rhumerus -18.9383 7.75958 -82.8435
rradius 36.9618
rwrist -13.481
rhand -19.9485 -19.6982
rfingers 7.12502
rthumb 6.38956 -49.5818
lclavicle -9.59571e-014 -4.85035e-014
lhumerus -51.9204 4.79328 78.2501
lradius 25.2736
lwrist 41.0212
lhand -14.4628 -0.923051
lfingers 7.12502
lthumb 11.6829 28.7312
rfemur -28.63 17.7807 20.9141
rtibia 33.0503
rfoot -15.3996 -11.4775
rtoes -12.0423
lfemur -45.0595 -6.34544 -14.4053
ltibia 33.7935
lfoot -2.8115 8.4528
ltoes -22.3881
221
root -1.17239 16.0355 -2.40806 15.0969 -4.22441 -1.5088
lowerback -6.48285 5.34047 12.2163
upperback -5.46462 6.54752 -0.157285
thorax -0.793799 2.97753 -6.51986
lowerneck -19.4466 1.9085 2.82013
upperneck 21.2002 3.28454 -5.84155
head 10.1263 1.05223 -2.06349
rclavicle -7.10686e-014 -2.70347e-014
rhumerus -19.164 7.71497 -82.7065
rradius 37.2072
rwrist -13.5666
rhand -20.1069 -19.5299
rfingers 7.12502
rthumb 6.23661 -49.418
lclavicle -7.10686e-014 -2.70347e-014
lhumerus -51.9513 4.5561 78.8706
lradius 25.0426
lwrist 40.3878
lhand -12.7613 -0.698504
lfingers 7.12502
lthumb 13.3233 28.8556
rfemur -28.8572 17.7963 20.7148
rtibia 33.1783
rfoot -15.2989 -11.5579
rtoes -11.5878
lfemur -45.0788 -6.28352 -14.8905
ltibia 35.2742
lfoot -2.97404 8.06153
ltoes -22.3492
222
root -1.17476 16.0399 -2.48753 14.9744 -4.10824 -1.36093
lowerback -6.43699 5.29435 12.2438
upperback -5.39841 6.48684 -0.0260996
thorax -0.773072 2.9516 -6.40378
lowerneck -19.3109 1.92217 2.8258
upperneck 21.1303 3.33567 -5.98018
head 10.0816 1.06309 -2.10558
rclavicle 7.43486e-014 3.18055e-014
rhumerus -19.423 7.64908 -82.5755
rradius 37.4437
rwrist -13.6645
rhand -20.2447 -19.3754
rfingers 7.12502
rthumb 6.10354 -49.2675
lclavicle 7.43486e-014 3.18055e-014
lhumerus -51.9608 4.28041 79.48
lradius 24.855
lwrist 39.7305
lhand -10.9858 -0.437298
lfingers 7.12502
lthumb 15.0342 28.9969
rfemur -29.104 17.8129 20.516
rtibia 33.3005
rfoot -15.1998 -11.6302
rtoes -11.1577
lfemur -45.0906 -6.20996 -15.3591
ltibia 36.756
lfoot -3.15537 7.65628
ltoes -22.351
223
root -1.17719 16.044 -2.56599 14.8781 -4.00134 -1.22396
lowerback -6.41014 5.24787 12.2569
upperback -5.33286 6.42359 0.103429
thorax -0.743895 2.92518 -6.28017
lowerneck -19.3381 1.99197 2.93037
upperneck 21.1129 3.44446 -6.15529
head 10.0917 1.10088 -2.16937
rclavicle 4.43569e-014 1.51076e-014
rhumerus -19.6944 7.56453 -82.4499
rradius 37.6628
rwrist -13.7697
rhand -20.3357 -19.2742
rfingers 7.12502
rthumb 6.0157 -49.1688
lclavicle 4.43569e-014 1.51076e-014
lhumerus -51.9379 3.9651 80.0888
lradius 24.7313
lwrist 39.1118
lhand -9.22398 -0.0706408
lfingers 7.12502
lthumb 16.7308 29.2284
rfemur -29.3754 17.8314 20.3184
rtibia 33.4176
rfoot -15.0998 -11.693
rtoes -10.7603
lfemur -45.0965 -6.12538 -15.8086
ltibia 38.2304
lfoot -3.35228 7.24374
ltoes -22.4001
224
root -1.17964 16.0479 -2.64345 14.8003 -3.9016 -1.09624
lowerback -6.39675 5.19914 12.2565
upperback -5.26845 6.356 0.232692
thorax -0.710246 2.89712 -6.14885
lowerneck -19.4476 2.08191 3.05763
upperneck 21.1294 3.57338 -6.3242
head 10.1311 1.14855 -2.2322
rclavicle -5.72034e-014 -4.77083e-015
rhumerus -19.9807 7.46305 -82.3287
rradius 37.8579
rwrist -13.8761
rhand -20.3688 -19.2431
rfingers 7.12502
rthumb 5.98377 -49.1386
lclavicle -5.72034e-014 -4.77083e-015
lhumerus -51.895 3.60101 80.7103
lradius 24.6875
lwrist 38.5786
lhand -7.52623 0.41914
lfingers 7.12502
lthumb 18.3646 29.5722
rfemur -29.6613 17.8497 20.1235
rtibia 33.528
rfoot -14.9986 -11.7519
rtoes -10.4188
lfemur -45.0857 -6.03248 -16.2414
ltibia 39.6888
lfoot -3.55986 6.83214
ltoes -22.4776
225
root -1.18188 16.0516 -2.71972 14.7365 -3.80371 -0.978775
lowerback -6.39097 5.15095 12.254
upperback -5.21277 6.28871 0.354512
thorax -0.680735 2.86857 -6.02408
lowerneck -19.6398 2.19563 3.24146
upperneck 21.1972 3.72384 -6.51007
head 10.2074 1.20639 -2.30802
rclavicle 5.42744e-014 3.02153e-014
rhumerus -20.2976 7.33085 -82.2164
rradius 38.0248
rwrist -13.9813
rhand -20.3531 -19.2629
rfingers 7.12502
rthumb 5.9989 -49.158
lclavicle 5.42744e-014 3.02153e-014
lhumerus -51.8484 3.17702 81.3342
lradius 24.7164
lwrist 38.1203
lhand -5.89296 0.952008
lfingers 7.12502
lthumb 19.9352 29.9495
rfemur -29.9547 17.8589 19.9358
rtibia 33.6308
rfoot -14.8966 -11.8041
rtoes -10.1465
lfemur -45.0508 -5.93661 -16.6559
ltibia 41.1237
lfoot -3.77211 6.42992
ltoes -22.5684
226
root -1.18378 16.055 -2.79505 14.6852 -3.70349 -0.873662
lowerback -6.39334 5.10308 12.2531
upperback -5.16989 6.2215 0.472917
thorax -0.6596 2.83896 -5.9038
lowerneck -19.8223 2.29215 3.40353
upperneck 21.2947 3.85432 -6.67878
head 10.2914 1.25486 -2.37748
rclavicle -2.73111e-014 -2.22639e-014
rhumerus -20.6541 7.17626 -82.108
rradius 38.1613
rwrist -14.0873
rhand -20.3128 -19.3021
rfingers 7.12502
rthumb 6.03781 -49.1961
lclavicle -2.73111e-014 -2.22639e-014
lhumerus -51.8143 2.70689 81.9527
lradius 24.8042
lwrist 37.7009
lhand -4.28823 1.42613
lfingers 7.12502
lthumb 21.4772 30.2555
rfemur -30.254 17.8537 19.7585
rtibia 33.7259
rfoot -14.7959 -11.849
rtoes -9.95644
lfemur -44.9905 -5.84155 -17.0489
ltibia 42.5293
lfoot -3.98352 6.04425
ltoes -22.6621
227
root -1.18502 16.0579 -2.86924 14.6399 -3.59673 -0.780123
lowerback -6.40787 5.05454 12.258
upperback -5.13936 6.15219 0.590272
thorax -0.644452 2.8073 -5.7877
lowerneck -19.9514 2.35885 3.52091
upperneck 21.3996 3.95193 -6.82176
head 10.3653 1.2884 -2.43538
rclavicle 2.83641e-014 -1.59028e-015
rhumerus -21.0528 7.00848 -81.9984
rradius 38.261
rwrist -14.1991
rhand -20.2652 -19.3327
rfingers 7.12502
rthumb 6.08376 -49.2253
lclavicle 2.83641e-014 -1.59028e-015
lhumerus -51.8019 2.20303 82.5638
lradius 24.9433
lwrist 37.3128
lhand -2.75622 1.79917
lfingers 7.12502
lthumb 22.9479 30.4534
rfemur -30.549 17.8217 19.5951
rtibia 33.8121
rfoot -14.7035 -11.8806
rtoes -9.84101
lfemur -44.8965 -5.75582 -17.4192
ltibia 43.8996
lfoot -4.19155 5.68314
ltoes -22.737
228
root -1.18574 16.0601 -2.94267 14.6008 -3.48626 -0.703243
lowerback -6.4304 5.00793 12.276
upperback -5.12707 6.08499 0.704464
thorax -0.642295 2.77488 -5.68209
lowerneck -20.0054 2.40276 3.59849
upperneck 21.4934 4.02124 -6.92629
head 10.4179 1.31183 -2.47703
rclavicle -1.83503e-014 1.59028e-014
rhumerus -21.5037 6.81907 -81.8917
rradius 38.3247
rwrist -14.3152
rhand -20.205 -19.3914
rfingers 7.12502
rthumb 6.14193 -49.2824
lclavicle -1.83503e-014 1.59028e-014
lhumerus -51.8198 1.67082 83.1571
lradius 25.1235
lwrist 36.939
lhand -1.33031 2.03223
lfingers 7.12502
lthumb 24.3156 30.5099
rfemur -30.8421 17.763 19.4511
rtibia 33.8893
rfoot -14.618 -11.8932
rtoes -9.79947
lfemur -44.7665 -5.67669 -17.7599
ltibia 45.2304
lfoot -4.3949 5.35069
ltoes -22.8235
229
root -1.18567 16.0618 -3.01491 14.5704 -3.37862 -0.64316
lowerback -6.46937 4.96658 12.308
upperback -5.13096 6.0228 0.814661
thorax -0.645604 2.74364 -5.58727
lowerneck -20.008 2.43822 3.65403
upperneck 21.5753 4.07778 -6.99835
head 10.4546 1.33266 -2.50515
rclavicle 2.719e-014 1.74931e-014
rhumerus -22.0021 6.61523 -81.7861
rradius 38.3479
rwrist -14.4431
rhand -20.1637 -19.4314
rfingers 7.12502
rthumb 6.18175 -49.3212
lclavicle 2.719e-014 1.74931e-014
lhumerus -51.8674 1.1185 83.7287
lradius 25.3468
lwrist 36.5899
lhand -0.0695683 2.17436
lfingers 7.12502
lthumb 25.5237 30.4847
rfemur -31.1331 17.6819 19.3245
rtibia 33.9555
rfoot -14.5409 -11.8855
rtoes -9.83257
lfemur -44.5992 -5.60269 -18.0712
ltibia 46.5161
lfoot -4.59404 5.04495
ltoes -22.8997
230
root -1.18489 16.0632 -3.08652 14.5491 -3.27118 -0.598648
lowerback -6.52211 4.92829 12.3529
upperback -5.14979 5.96306 0.919141
thorax -0.65499 2.71233 -5.5049
lowerneck -19.927 2.45544 3.67377
upperneck 21.6175 4.10677 -7.02195
head 10.4575 1.34598 -2.51344
rclavicle 3.14949e-014 0
rhumerus -22.5363 6.39529 -81.6835
rradius 38.3216
rwrist -14.5806
rhand -20.1471 -19.4398
rfingers 7.12502
rthumb 6.19776 -49.3292
lclavicle 3.14949e-014 0
lhumerus -51.9358 0.561963 84.2637
lradius 25.6025
lwrist 36.2639
lhand 0.975859 2.29486
lfingers 7.12502
lthumb 26.5247 30.458
rfemur -31.4243 17.579 19.2137
rtibia 34.0098
rfoot -14.4663 -11.8588
rtoes -9.92077
lfemur -44.3993 -5.53833 -18.3519
ltibia 47.7528
lfoot -4.78954 4.75511
ltoes -22.9744
231
root -1.18358 16.0642 -3.15763 14.5378 -3.16215 -0.569149
lowerback -6.58826 4.88954 12.405
upperback -5.17291 5.90061 1.0193
thorax -0.660921 2.6795 -5.43033
lowerneck -19.893 2.49738 3.74115
upperneck 21.6763 4.15842 -7.0569
head 10.478 1.37113 -2.53062
rclavicle 1.65737e-014 1.59028e-015
rhumerus -23.0734 6.16338 -81.5817
rradius 38.2257
rwrist -14.7276
rhand -20.1424 -19.4235
rfingers 7.12502
rthumb 6.20231 -49.3128
lclavicle 1.65737e-014 1.59028e-015
lhumerus -51.995 0.0228262 84.7486
lradius 25.875
lwrist 35.9684
lhand 1.80164 2.39121
lfingers 7.12502
lthumb 27.3149 30.4324
rfemur -31.7169 17.4624 19.1167
rtibia 34.0511
rfoot -14.3907 -11.8173
rtoes -10.04
lfemur -44.1676 -5.48681 -18.5993
ltibia 48.9356
lfoot -4.98663 4.46678
ltoes -23.0243
232
root -1.18175 16.0651 -3.22833 14.5337 -3.05555 -0.552568
lowerback -6.66158 4.84755 12.4574
upperback -5.19921 5.83293 1.11936
thorax -0.667122 2.64393 -5.35617
lowerneck -19.8683 2.53836 3.80722
upperneck 21.7485 4.20941 -7.09008
head 10.5051 1.39571 -2.54727
rclavicle 2.86747e-014 2.38542e-014
rhumerus -23.6064 5.93123 -81.4783
rradius 38.0532
rwrist -14.8847
rhand -20.1569 -19.367
rfingers 7.12502
rthumb 6.18836 -49.2566
lclavicle 2.86747e-014 2.38542e-014
lhumerus -52.0454 -0.484698 85.182
lradius 26.1619
lwrist 35.7271
lhand 2.39769 2.46967
lfingers 7.12502
lthumb 27.8849 30.4198
rfemur -32.0095 17.3385 19.031
rtibia 34.0802
rfoot -14.3089 -11.7634
rtoes -10.1686
lfemur -43.8983 -5.44479 -18.8173
ltibia 50.0605
lfoot -5.18906 4.1633
ltoes -23.0499
233
root -1.17962 16.0656 -3.29876 14.5348 -2.94736 -0.545594
lowerback -6.74221 4.79951 12.5015
upperback -5.22822 5.7567 1.22173
thorax -0.674488 2.60417 -5.27556
lowerneck -19.8436 2.57385 3.86819
upperneck 21.833 4.2551 -7.12294
head 10.5363 1.4173 -2.56397
rclavicle -5.1684e-014 -1.59028e-015
rhumerus -24.1293 5.70184 -81.3699
rradius 37.7941
rwrist -15.0512
rhand -20.173 -19.2936
rfingers 7.12502
rthumb 6.1728 -49.1836
lclavicle -5.1684e-014 -1.59028e-015
lhumerus -52.0812 -0.950758 85.562
lradius 26.445
lwrist 35.5518
lhand 2.76582 2.46803
lfingers 7.12502
lthumb 28.2368 30.3605
rfemur -32.3011 17.2161 18.9526
rtibia 34.0999
rfoot -14.2173 -11.7075
rtoes -10.2941
lfemur -43.5891 -5.41648 -19.0076
ltibia 51.1217
lfoot -5.39472 3.83486
ltoes -23.0659
